<mxfile host="app.diagrams.net" agent="Mozilla/5.0 (Windows NT 10.0; Win64; x64) AppleWebKit/537.36 (KHTML, like Gecko) Chrome/133.0.0.0 Safari/537.36" version="26.0.16">
  <diagram id="IUvNL7U811MzMK7KNJoY" name="Page-1">
    <mxGraphModel dx="1422" dy="2189" grid="0" gridSize="10" guides="1" tooltips="1" connect="1" arrows="1" fold="1" page="0" pageScale="1" pageWidth="827" pageHeight="1169" math="0" shadow="0">
      <root>
        <mxCell id="0" />
        <mxCell id="1" parent="0" />
        <mxCell id="n8HPmkPndc6R2_Ujowg--1" value="BENEFIT" style="swimlane;childLayout=stackLayout;horizontal=1;startSize=50;horizontalStack=0;rounded=1;fontSize=14;fontStyle=0;strokeWidth=2;resizeParent=0;resizeLast=1;shadow=0;dashed=0;align=center;arcSize=4;whiteSpace=wrap;html=1;" vertex="1" parent="1">
          <mxGeometry x="-524" y="-1523" width="160" height="120" as="geometry" />
        </mxCell>
        <mxCell id="n8HPmkPndc6R2_Ujowg--2" value="+EMP_CODE {FK, PK}&lt;div&gt;+PLAN_CODE {FK}&lt;/div&gt;" style="align=left;strokeColor=none;fillColor=none;spacingLeft=4;spacingRight=4;fontSize=12;verticalAlign=top;resizable=0;rotatable=0;part=1;html=1;whiteSpace=wrap;" vertex="1" parent="n8HPmkPndc6R2_Ujowg--1">
          <mxGeometry y="50" width="160" height="70" as="geometry" />
        </mxCell>
        <mxCell id="n8HPmkPndc6R2_Ujowg--3" value="EMPLOYEE" style="swimlane;childLayout=stackLayout;horizontal=1;startSize=50;horizontalStack=0;rounded=1;fontSize=14;fontStyle=0;strokeWidth=2;resizeParent=0;resizeLast=1;shadow=0;dashed=0;align=center;arcSize=4;whiteSpace=wrap;html=1;" vertex="1" parent="1">
          <mxGeometry x="-812" y="-1523" width="160" height="125" as="geometry" />
        </mxCell>
        <mxCell id="n8HPmkPndc6R2_Ujowg--4" value="+EMP_CODE {PK}&lt;div&gt;+EMP_LNAME&lt;/div&gt;&lt;div&gt;+JOB_CODE {FK}&lt;/div&gt;" style="align=left;strokeColor=none;fillColor=none;spacingLeft=4;spacingRight=4;fontSize=12;verticalAlign=top;resizable=0;rotatable=0;part=1;html=1;whiteSpace=wrap;" vertex="1" parent="n8HPmkPndc6R2_Ujowg--3">
          <mxGeometry y="50" width="160" height="75" as="geometry" />
        </mxCell>
        <mxCell id="n8HPmkPndc6R2_Ujowg--5" value="JOB" style="swimlane;childLayout=stackLayout;horizontal=1;startSize=50;horizontalStack=0;rounded=1;fontSize=14;fontStyle=0;strokeWidth=2;resizeParent=0;resizeLast=1;shadow=0;dashed=0;align=center;arcSize=4;whiteSpace=wrap;html=1;" vertex="1" parent="1">
          <mxGeometry x="-812" y="-1319" width="160" height="120" as="geometry" />
        </mxCell>
        <mxCell id="n8HPmkPndc6R2_Ujowg--6" value="+JOB_CODE {PK}&lt;div&gt;+JOB_DESCRIPTION&lt;/div&gt;" style="align=left;strokeColor=none;fillColor=none;spacingLeft=4;spacingRight=4;fontSize=12;verticalAlign=top;resizable=0;rotatable=0;part=1;html=1;whiteSpace=wrap;" vertex="1" parent="n8HPmkPndc6R2_Ujowg--5">
          <mxGeometry y="50" width="160" height="70" as="geometry" />
        </mxCell>
        <mxCell id="n8HPmkPndc6R2_Ujowg--7" value="PLAN" style="swimlane;childLayout=stackLayout;horizontal=1;startSize=50;horizontalStack=0;rounded=1;fontSize=14;fontStyle=0;strokeWidth=2;resizeParent=0;resizeLast=1;shadow=0;dashed=0;align=center;arcSize=4;whiteSpace=wrap;html=1;" vertex="1" parent="1">
          <mxGeometry x="-524" y="-1317" width="160" height="120" as="geometry" />
        </mxCell>
        <mxCell id="n8HPmkPndc6R2_Ujowg--8" value="+PLAN_CODE {PK}&lt;div&gt;+PLAN_DESCRIPTION&lt;/div&gt;" style="align=left;strokeColor=none;fillColor=none;spacingLeft=4;spacingRight=4;fontSize=12;verticalAlign=top;resizable=0;rotatable=0;part=1;html=1;whiteSpace=wrap;" vertex="1" parent="n8HPmkPndc6R2_Ujowg--7">
          <mxGeometry y="50" width="160" height="70" as="geometry" />
        </mxCell>
        <mxCell id="n8HPmkPndc6R2_Ujowg--9" value="" style="endArrow=none;html=1;rounded=0;fontSize=12;startSize=8;endSize=8;curved=1;startFill=0;exitX=0.5;exitY=1;exitDx=0;exitDy=0;entryX=0.5;entryY=0;entryDx=0;entryDy=0;" edge="1" parent="1" source="n8HPmkPndc6R2_Ujowg--4" target="n8HPmkPndc6R2_Ujowg--5">
          <mxGeometry relative="1" as="geometry">
            <mxPoint x="-698" y="-1359" as="sourcePoint" />
            <mxPoint x="-538" y="-1359" as="targetPoint" />
          </mxGeometry>
        </mxCell>
        <mxCell id="n8HPmkPndc6R2_Ujowg--10" value="Employes &amp;gt;" style="edgeLabel;resizable=0;html=1;;align=center;verticalAlign=middle;" connectable="0" vertex="1" parent="n8HPmkPndc6R2_Ujowg--9">
          <mxGeometry relative="1" as="geometry">
            <mxPoint x="19" as="offset" />
          </mxGeometry>
        </mxCell>
        <mxCell id="n8HPmkPndc6R2_Ujowg--11" value="1..*" style="edgeLabel;resizable=0;html=1;;align=left;verticalAlign=bottom;" connectable="0" vertex="1" parent="n8HPmkPndc6R2_Ujowg--9">
          <mxGeometry x="-1" relative="1" as="geometry">
            <mxPoint x="-23" y="18" as="offset" />
          </mxGeometry>
        </mxCell>
        <mxCell id="n8HPmkPndc6R2_Ujowg--12" value="1..1" style="edgeLabel;resizable=0;html=1;;align=right;verticalAlign=bottom;" connectable="0" vertex="1" parent="n8HPmkPndc6R2_Ujowg--9">
          <mxGeometry x="1" relative="1" as="geometry">
            <mxPoint x="-4" as="offset" />
          </mxGeometry>
        </mxCell>
      </root>
    </mxGraphModel>
  </diagram>
</mxfile>
